 <svg
        xmlns="http://www.w3.org/2000/svg"
        width="2500"
        height="2500"
        viewBox="0 0 192.756 192.756"
      >
        <path
          d="M70.988 23.019c6.762-3.042 15.89-6.423 24.679-6.761v45.3h-8.113V25.723c-2.705.677-5.409 1.353-7.437 2.029v42.595h14.536v64.23c-8.113-.676-15.55-2.027-23.664-6.422V86.574h8.79v37.188c2.367 1.014 4.732 1.689 7.1 2.027V78.461h-15.89V23.019h-.001zM98.033 16.596c7.1 0 14.535 1.014 21.975 4.057v9.465c-2.367-1.69-4.396-2.028-6.762-3.042v105.137c-3.043 1.014-5.748 1.352-8.451 1.689V25.047c-2.367-.338-4.734-.338-6.762-.338v-8.113zM122.373 21.667l16.564 35.835 6.762-16.227c16.227 22.987 13.861 51.046-1.014 70.317l-5.748-5.748c9.805-11.832 11.832-29.411 8.113-43.61l-7.773 19.946-8.113-19.27v61.19c-2.705 2.027-5.748 3.719-8.791 5.07V21.667zM44.62 100.773c-10.48-21.636-7.099-55.104 18.931-73.021v96.009c-2.367-1.691-5.747-5.41-8.113-6.762V78.123h-8.452c.338 5.747 2.029 13.523 5.071 19.608l-7.437 3.042zm10.818-52.737v22.312h-8.452c.677-6.086 3.719-16.903 8.452-22.312z"
          fill-rule="evenodd"
          clip-rule="evenodd"
          fill="#000"
        />
        <path
          d="M169.701 57.501c2.029 11.494-28.396 32.115-66.598 42.256C64.565 109.9 34.14 109.9 23.998 97.393c3.719 13.184 39.891 17.918 80.119 6.76 39.893-11.155 69.641-32.792 65.584-46.652z"
          fill-rule="evenodd"
          clip-rule="evenodd"
          fill="#fff"
        />
        <path
          d="M170.039 56.826c1.691 13.184-26.705 32.791-66.598 43.948-40.229 11.156-76.401 8.451-80.119-5.071-1.014-3.719-1.353-9.466 12.169-18.593 1.015-.676 1.353-.338.339.337-12.508 8.79-12.847 14.537-11.494 17.917 6.423 18.593 63.217 5.748 78.091 1.691 36.85-10.48 67.611-27.721 66.598-39.891-.338-3.719-2.027-8.114-14.875-10.48-1.014-.338-1.014-.676 0-.338 13.524 2.028 15.551 6.76 15.889 10.48z"
          fill-rule="evenodd"
          clip-rule="evenodd"
          fill="#000"
        />
      </svg>